<mxfile host="app.diagrams.net" agent="Mozilla/5.0 (Linux; Android 10; K) AppleWebKit/537.36 (KHTML, like Gecko) Chrome/129.0.0.0 Mobile Safari/537.36" version="24.7.17">
  <diagram name="Page-1" id="pxc-b7j2eG7SgJHQdEo9">
    <mxGraphModel dx="838" dy="721" grid="0" gridSize="10" guides="1" tooltips="1" connect="1" arrows="1" fold="1" page="0" pageScale="1" pageWidth="850" pageHeight="1100" math="0" shadow="0">
      <root>
        <mxCell id="0" />
        <mxCell id="1" parent="0" />
        <mxCell id="FRDXfSUAuDTLDU8oNISK-5" value="" style="edgeStyle=none;curved=1;rounded=0;orthogonalLoop=1;jettySize=auto;html=1;fontSize=12;startSize=8;endSize=8;" edge="1" parent="1" source="FRDXfSUAuDTLDU8oNISK-6">
          <mxGeometry relative="1" as="geometry">
            <mxPoint x="105" y="391" as="targetPoint" />
          </mxGeometry>
        </mxCell>
        <mxCell id="FRDXfSUAuDTLDU8oNISK-2" value="" style="ellipse;whiteSpace=wrap;html=1;" vertex="1" parent="1">
          <mxGeometry x="117" y="186" width="80" height="80" as="geometry" />
        </mxCell>
        <mxCell id="FRDXfSUAuDTLDU8oNISK-3" value="Start" style="text;html=1;align=center;verticalAlign=middle;resizable=0;points=[];autosize=1;strokeColor=none;fillColor=none;fontSize=16;" vertex="1" parent="1">
          <mxGeometry x="131" y="204" width="52" height="31" as="geometry" />
        </mxCell>
        <mxCell id="FRDXfSUAuDTLDU8oNISK-4" value="" style="whiteSpace=wrap;html=1;" vertex="1" parent="1">
          <mxGeometry x="99" y="331" width="120" height="60" as="geometry" />
        </mxCell>
        <mxCell id="FRDXfSUAuDTLDU8oNISK-7" value="" style="edgeStyle=none;curved=1;rounded=0;orthogonalLoop=1;jettySize=auto;html=1;fontSize=12;startSize=8;endSize=8;entryX=0.5;entryY=0;entryDx=0;entryDy=0;" edge="1" parent="1" source="FRDXfSUAuDTLDU8oNISK-2" target="FRDXfSUAuDTLDU8oNISK-4">
          <mxGeometry relative="1" as="geometry">
            <mxPoint x="157" y="266" as="sourcePoint" />
            <mxPoint x="162" y="312" as="targetPoint" />
          </mxGeometry>
        </mxCell>
        <mxCell id="FRDXfSUAuDTLDU8oNISK-17" value="" style="edgeStyle=none;curved=1;rounded=0;orthogonalLoop=1;jettySize=auto;html=1;fontSize=12;startSize=8;endSize=8;" edge="1" parent="1" source="FRDXfSUAuDTLDU8oNISK-6" target="FRDXfSUAuDTLDU8oNISK-8">
          <mxGeometry relative="1" as="geometry" />
        </mxCell>
        <mxCell id="FRDXfSUAuDTLDU8oNISK-6" value="Login" style="text;html=1;align=center;verticalAlign=middle;resizable=0;points=[];autosize=1;strokeColor=none;fillColor=none;fontSize=16;rotation=0;" vertex="1" parent="1">
          <mxGeometry x="126" y="348" width="57" height="31" as="geometry" />
        </mxCell>
        <mxCell id="FRDXfSUAuDTLDU8oNISK-11" value="NO" style="edgeStyle=none;curved=1;rounded=0;orthogonalLoop=1;jettySize=auto;html=1;fontSize=12;startSize=8;endSize=8;" edge="1" parent="1" target="FRDXfSUAuDTLDU8oNISK-10">
          <mxGeometry relative="1" as="geometry">
            <mxPoint x="136" y="478" as="sourcePoint" />
            <Array as="points">
              <mxPoint x="87" y="483" />
            </Array>
          </mxGeometry>
        </mxCell>
        <mxCell id="FRDXfSUAuDTLDU8oNISK-22" value="" style="edgeStyle=none;curved=1;rounded=0;orthogonalLoop=1;jettySize=auto;html=1;fontSize=12;startSize=8;endSize=8;" edge="1" parent="1" source="FRDXfSUAuDTLDU8oNISK-8" target="FRDXfSUAuDTLDU8oNISK-21">
          <mxGeometry relative="1" as="geometry" />
        </mxCell>
        <mxCell id="FRDXfSUAuDTLDU8oNISK-23" value="YES" style="edgeLabel;html=1;align=center;verticalAlign=middle;resizable=0;points=[];fontSize=12;" vertex="1" connectable="0" parent="FRDXfSUAuDTLDU8oNISK-22">
          <mxGeometry x="-0.0341" y="4" relative="1" as="geometry">
            <mxPoint as="offset" />
          </mxGeometry>
        </mxCell>
        <mxCell id="FRDXfSUAuDTLDU8oNISK-8" value="Have&lt;div&gt;Accont&lt;/div&gt;" style="rhombus;whiteSpace=wrap;html=1;" vertex="1" parent="1">
          <mxGeometry x="119" y="440" width="80" height="80" as="geometry" />
        </mxCell>
        <mxCell id="FRDXfSUAuDTLDU8oNISK-14" style="edgeStyle=none;curved=1;rounded=0;orthogonalLoop=1;jettySize=auto;html=1;entryX=0;entryY=0.25;entryDx=0;entryDy=0;fontSize=12;startSize=8;endSize=8;" edge="1" parent="1" source="FRDXfSUAuDTLDU8oNISK-10" target="FRDXfSUAuDTLDU8oNISK-4">
          <mxGeometry relative="1" as="geometry">
            <Array as="points">
              <mxPoint x="-40" y="315" />
            </Array>
          </mxGeometry>
        </mxCell>
        <mxCell id="FRDXfSUAuDTLDU8oNISK-10" value="Register" style="whiteSpace=wrap;html=1;" vertex="1" parent="1">
          <mxGeometry x="-64" y="457" width="120" height="60" as="geometry" />
        </mxCell>
        <mxCell id="FRDXfSUAuDTLDU8oNISK-21" value="Add Task page" style="whiteSpace=wrap;html=1;" vertex="1" parent="1">
          <mxGeometry x="94.5" y="573" width="120" height="60" as="geometry" />
        </mxCell>
      </root>
    </mxGraphModel>
  </diagram>
</mxfile>
